# xmcd
#
# Track frame offsets: 
#        150
#        12527
#        23198
#        31799
#        41908
#        52871
#        64590
#        75439
#        91955
#        102828
#        118629
#        132793
#        144239
#        156929
#        173917
#        187299
#        198402
#        209279
#        226552
#        240200
#        250792
#
# Disc length: 3571 seconds
#
# Revision: 0
# Processed by: cddbd v1.5.2PL0 Copyright (c) Steve Scherf et al.
# Submitted via: ExactAudioCopy v1.3
#
DISCID=090df115
DTITLE=Various Artist - Country Jukebox, CD1 Misty Blue
DYEAR=2014
DGENRE=Country
TTITLE0=Merle Haggard - Workin' man blues
TTITLE1=Jerry Wallace - Fool's Hall of Fame
TTITLE2=Patsy Cline - Ain't no wheels on this ship
TTITLE3=Tommy Cash and Johnny Cash - Guess things happen that way
TTITLE4=Lee Miles and Bobby Sykes - Slipping around
TTITLE5=Don Reno and Bobby Thompson - Under the Double Eagle
TTITLE6=Larry Gatlin and the Gatlin brothers - I don't wanna cry
TTITLE7=Lee Greenwood - Somebody's gonna love you
TTITLE8=Billie Jo Spears - Misty blue
TTITLE9=Ray Price - I won't mention it again
TTITLE10=Kenny Rogers - You light up my life
TTITLE11=Brenda Lee - Break it to me gently
TTITLE12=Merle Haggard - I'm always on a mountain when I fall
TTITLE13=Conway Twitty - Don't cry Joni
TTITLE14=Johnny Paycheck - Slide off your satin sheets
TTITLE15=Peters and Lee - It doesn't matter anymore
TTITLE16=Harold Morrison and the Maple Hill boys - Soldier's joy
TTITLE17=The Charlie Daniels Band with Earl, Gary and Randy Scruggs - 
TTITLE17=Maggie's farm
TTITLE18=Dickey Lee - 9,999,999 tears
TTITLE19=The Kendalls - You'd make an angel want to cheat
TTITLE20=John Denver - Calypso
EXTD=
EXTT0=
EXTT1=
EXTT2=
EXTT3=
EXTT4=
EXTT5=
EXTT6=
EXTT7=
EXTT8=
EXTT9=
EXTT10=
EXTT11=
EXTT12=
EXTT13=
EXTT14=
EXTT15=
EXTT16=
EXTT17=
EXTT18=
EXTT19=
EXTT20=
PLAYORDER=
